<mxfile host="app.diagrams.net" modified="2023-06-14T14:18:37.671Z" agent="Mozilla/5.0 (Windows NT 10.0; Win64; x64) AppleWebKit/537.36 (KHTML, like Gecko) Chrome/114.0.0.0 Safari/537.36" etag="EszPn9bwivDfsSvJFooB" version="21.3.8" type="github">
  <diagram name="Page-1" id="r-0Xbe3y7Y9w9s33wDKC">
    <mxGraphModel dx="1434" dy="756" grid="1" gridSize="10" guides="1" tooltips="1" connect="1" arrows="1" fold="1" page="1" pageScale="1" pageWidth="850" pageHeight="1100" math="0" shadow="0">
      <root>
        <mxCell id="0" />
        <mxCell id="1" parent="0" />
        <mxCell id="x21fHf0RearXtBFmMJXq-65" style="edgeStyle=elbowEdgeStyle;rounded=0;orthogonalLoop=1;jettySize=auto;html=1;elbow=vertical;curved=0;entryX=0;entryY=0.5;entryDx=0;entryDy=0;" edge="1" parent="1" source="x21fHf0RearXtBFmMJXq-62" target="x21fHf0RearXtBFmMJXq-64">
          <mxGeometry relative="1" as="geometry" />
        </mxCell>
        <mxCell id="x21fHf0RearXtBFmMJXq-62" value="pkg&lt;br&gt;main" style="shape=umlLifeline;perimeter=lifelinePerimeter;whiteSpace=wrap;html=1;container=1;dropTarget=0;collapsible=0;recursiveResize=0;outlineConnect=0;portConstraint=eastwest;newEdgeStyle={&quot;edgeStyle&quot;:&quot;elbowEdgeStyle&quot;,&quot;elbow&quot;:&quot;vertical&quot;,&quot;curved&quot;:0,&quot;rounded&quot;:0};participant=umlControl;" vertex="1" parent="1">
          <mxGeometry x="90" y="290" width="40" height="300" as="geometry" />
        </mxCell>
        <mxCell id="x21fHf0RearXtBFmMJXq-67" style="edgeStyle=elbowEdgeStyle;rounded=0;orthogonalLoop=1;jettySize=auto;html=1;elbow=vertical;curved=0;shape=flexArrow;" edge="1" parent="1" source="x21fHf0RearXtBFmMJXq-63" target="x21fHf0RearXtBFmMJXq-62">
          <mxGeometry relative="1" as="geometry">
            <Array as="points">
              <mxPoint x="360" y="490" />
              <mxPoint x="300" y="460" />
            </Array>
          </mxGeometry>
        </mxCell>
        <mxCell id="x21fHf0RearXtBFmMJXq-69" value="make(chan *http.Response, bufferSize)" style="edgeLabel;html=1;align=center;verticalAlign=bottom;resizable=0;points=[];" vertex="1" connectable="0" parent="x21fHf0RearXtBFmMJXq-67">
          <mxGeometry x="-0.0403" relative="1" as="geometry">
            <mxPoint as="offset" />
          </mxGeometry>
        </mxCell>
        <mxCell id="x21fHf0RearXtBFmMJXq-68" style="edgeStyle=elbowEdgeStyle;rounded=0;orthogonalLoop=1;jettySize=auto;html=1;elbow=vertical;curved=0;shape=flexArrow;" edge="1" parent="1" source="x21fHf0RearXtBFmMJXq-63" target="x21fHf0RearXtBFmMJXq-62">
          <mxGeometry relative="1" as="geometry">
            <Array as="points">
              <mxPoint x="490" y="550" />
              <mxPoint x="360" y="560" />
              <mxPoint x="230" y="500" />
            </Array>
          </mxGeometry>
        </mxCell>
        <mxCell id="x21fHf0RearXtBFmMJXq-70" value="make(chan error, bufferSize)" style="edgeLabel;html=1;align=center;verticalAlign=bottom;resizable=0;points=[];" vertex="1" connectable="0" parent="x21fHf0RearXtBFmMJXq-68">
          <mxGeometry x="-0.0364" y="-1" relative="1" as="geometry">
            <mxPoint as="offset" />
          </mxGeometry>
        </mxCell>
        <mxCell id="x21fHf0RearXtBFmMJXq-63" value="pkg&lt;br&gt;async" style="shape=umlLifeline;perimeter=lifelinePerimeter;whiteSpace=wrap;html=1;container=1;dropTarget=0;collapsible=0;recursiveResize=0;outlineConnect=0;portConstraint=eastwest;newEdgeStyle={&quot;edgeStyle&quot;:&quot;elbowEdgeStyle&quot;,&quot;elbow&quot;:&quot;vertical&quot;,&quot;curved&quot;:0,&quot;rounded&quot;:0};participant=umlControl;" vertex="1" parent="1">
          <mxGeometry x="620" y="340" width="40" height="230" as="geometry" />
        </mxCell>
        <mxCell id="x21fHf0RearXtBFmMJXq-77" value="[0..*]&amp;nbsp;go c.AsyncGet(url)" style="edgeStyle=orthogonalEdgeStyle;rounded=0;orthogonalLoop=1;jettySize=auto;html=1;verticalAlign=bottom;align=right;" edge="1" parent="1" source="x21fHf0RearXtBFmMJXq-64" target="x21fHf0RearXtBFmMJXq-63">
          <mxGeometry x="0.8372" relative="1" as="geometry">
            <Array as="points">
              <mxPoint x="460" y="405" />
              <mxPoint x="460" y="405" />
            </Array>
            <mxPoint as="offset" />
          </mxGeometry>
        </mxCell>
        <mxCell id="x21fHf0RearXtBFmMJXq-64" value="&lt;div style=&quot;text-align: left;&quot;&gt;&lt;span style=&quot;background-color: initial; font-size: 9px;&quot;&gt;func FetchAll(urls []string, c *Client)&lt;/span&gt;&lt;/div&gt;" style="html=1;whiteSpace=wrap;" vertex="1" parent="1">
          <mxGeometry x="290" y="390" width="180" height="30" as="geometry" />
        </mxCell>
        <mxCell id="x21fHf0RearXtBFmMJXq-74" value="1) call&amp;nbsp;async.NewClient(http.DefaultClient, len(urls))" style="text;strokeColor=none;fillColor=none;align=left;verticalAlign=top;spacingLeft=4;spacingRight=4;overflow=hidden;rotatable=0;points=[[0,0.5],[1,0.5]];portConstraint=eastwest;whiteSpace=wrap;html=1;" vertex="1" parent="1">
          <mxGeometry x="110" y="330" width="290" height="26" as="geometry" />
        </mxCell>
        <mxCell id="x21fHf0RearXtBFmMJXq-75" value="2) invoke async.FetchAll(urls, c)" style="text;strokeColor=none;fillColor=none;align=left;verticalAlign=top;spacingLeft=4;spacingRight=4;overflow=hidden;rotatable=0;points=[[0,0.5],[1,0.5]];portConstraint=eastwest;whiteSpace=wrap;html=1;" vertex="1" parent="1">
          <mxGeometry x="110" y="356" width="280" height="26" as="geometry" />
        </mxCell>
        <mxCell id="x21fHf0RearXtBFmMJXq-80" value="&lt;i&gt;Note: AsyncGet(url) is a Client method&lt;br&gt;and the channels exist on the Client struct.&lt;/i&gt;" style="text;strokeColor=none;fillColor=none;align=left;verticalAlign=top;spacingLeft=4;spacingRight=4;overflow=hidden;rotatable=0;points=[[0,0.5],[1,0.5]];portConstraint=eastwest;whiteSpace=wrap;html=1;" vertex="1" parent="1">
          <mxGeometry x="640" y="382" width="230" height="58" as="geometry" />
        </mxCell>
        <mxCell id="x21fHf0RearXtBFmMJXq-84" value="select" style="shape=curlyBracket;whiteSpace=wrap;html=1;rounded=1;labelPosition=left;verticalLabelPosition=middle;align=right;verticalAlign=middle;" vertex="1" parent="1">
          <mxGeometry x="80" y="477" width="20" height="90" as="geometry" />
        </mxCell>
        <mxCell id="x21fHf0RearXtBFmMJXq-85" value="if err != nil&amp;nbsp;" style="shape=umlFrame;whiteSpace=wrap;html=1;pointerEvents=0;" vertex="1" parent="1">
          <mxGeometry x="565" y="451" width="90" height="60" as="geometry" />
        </mxCell>
        <mxCell id="x21fHf0RearXtBFmMJXq-86" value="else&amp;nbsp;" style="shape=umlFrame;whiteSpace=wrap;html=1;pointerEvents=0;" vertex="1" parent="1">
          <mxGeometry x="565" y="511" width="90" height="60" as="geometry" />
        </mxCell>
        <mxCell id="x21fHf0RearXtBFmMJXq-81" value="" style="shape=umlDestroy;whiteSpace=wrap;html=1;strokeWidth=3;targetShapes=umlLifeline;" vertex="1" parent="1">
          <mxGeometry x="95" y="580" width="30" height="30" as="geometry" />
        </mxCell>
        <mxCell id="x21fHf0RearXtBFmMJXq-91" value="type Client struct" style="swimlane;fontStyle=1;align=center;verticalAlign=top;childLayout=stackLayout;horizontal=1;startSize=26;horizontalStack=0;resizeParent=1;resizeParentMax=0;resizeLast=0;collapsible=1;marginBottom=0;whiteSpace=wrap;html=1;" vertex="1" parent="1">
          <mxGeometry x="110" y="120" width="210" height="124" as="geometry">
            <mxRectangle x="120" y="80" width="140" height="30" as="alternateBounds" />
          </mxGeometry>
        </mxCell>
        <mxCell id="x21fHf0RearXtBFmMJXq-92" value="*http.Client&lt;br&gt;Resp&lt;span style=&quot;white-space: pre;&quot;&gt;&#x9;&lt;/span&gt;chan&lt;span style=&quot;white-space: pre;&quot;&gt;&#x9;&lt;/span&gt;*http.Response&lt;br&gt;Err&lt;span style=&quot;white-space: pre;&quot;&gt;&#x9;&lt;/span&gt;&lt;span style=&quot;white-space: pre;&quot;&gt;&#x9;&lt;/span&gt;chan&lt;span style=&quot;white-space: pre;&quot;&gt;&#x9;&lt;/span&gt;error" style="text;strokeColor=none;fillColor=none;align=left;verticalAlign=top;spacingLeft=4;spacingRight=4;overflow=hidden;rotatable=0;points=[[0,0.5],[1,0.5]];portConstraint=eastwest;whiteSpace=wrap;html=1;" vertex="1" parent="x21fHf0RearXtBFmMJXq-91">
          <mxGeometry y="26" width="210" height="64" as="geometry" />
        </mxCell>
        <mxCell id="x21fHf0RearXtBFmMJXq-93" value="" style="line;strokeWidth=1;fillColor=none;align=left;verticalAlign=middle;spacingTop=-1;spacingLeft=3;spacingRight=3;rotatable=0;labelPosition=right;points=[];portConstraint=eastwest;strokeColor=inherit;" vertex="1" parent="x21fHf0RearXtBFmMJXq-91">
          <mxGeometry y="90" width="210" height="8" as="geometry" />
        </mxCell>
        <mxCell id="x21fHf0RearXtBFmMJXq-94" value="func (c *Client) syncGet(url string)" style="text;strokeColor=none;fillColor=none;align=left;verticalAlign=top;spacingLeft=4;spacingRight=4;overflow=hidden;rotatable=0;points=[[0,0.5],[1,0.5]];portConstraint=eastwest;whiteSpace=wrap;html=1;" vertex="1" parent="x21fHf0RearXtBFmMJXq-91">
          <mxGeometry y="98" width="210" height="26" as="geometry" />
        </mxCell>
      </root>
    </mxGraphModel>
  </diagram>
</mxfile>
